<svg width="40" height="40" viewBox="0 0 40 40" fill="none" xmlns="http://www.w3.org/2000/svg">
<g clip-path="url(#clip0_1230_17044)">
<path d="M22.2886 31H17.7114M26.8657 15.9474C26.8657 14.1048 26.1424 12.3377 24.8548 11.0348C23.5672 9.73195 21.8209 9 20 9C18.1791 9 16.4328 9.73195 15.1452 11.0348C13.8576 12.3377 13.1342 14.1048 13.1342 15.9474C13.1342 19.5255 12.2422 21.9753 11.2458 23.5957C10.4053 24.9626 9.985 25.646 10.0004 25.8367C10.0175 26.0478 10.0617 26.1283 10.2298 26.2545C10.3816 26.3684 11.066 26.3684 12.4349 26.3684H27.5651C28.934 26.3684 29.6184 26.3684 29.7702 26.2545C29.9383 26.1283 29.9825 26.0478 29.9996 25.8367C30.015 25.646 29.5947 24.9626 28.7542 23.5957C27.7578 21.9753 26.8657 19.5255 26.8657 15.9474Z" stroke="#6D7882" stroke-width="2" stroke-linecap="round" stroke-linejoin="round"/>
</g>
<defs>
<clipPath id="clip0_1230_17044">
<rect width="22" height="24" fill="white" transform="translate(9 8)"/>
</clipPath>
</defs>
</svg>
