<svg width="50" height="50" viewBox="0 0 50 50" fill="none" xmlns="http://www.w3.org/2000/svg">
<mask id="mask0_4632_24473" style="mask-type:alpha" maskUnits="userSpaceOnUse" x="0" y="0" width="50" height="50">
<rect x="50" y="50" width="50" height="50" transform="rotate(-180 50 50)" fill="#D9D9D9"/>
</mask>
<g mask="url(#mask0_4632_24473)">
<path d="M29.4972 26.2192L26.5313 23.2284C26.3267 23.0221 26.2287 22.7815 26.2372 22.5064C26.2457 22.2314 26.3523 21.9908 26.5568 21.7845C26.7614 21.5955 27 21.4966 27.2727 21.488C27.5455 21.4794 27.7841 21.5783 27.9886 21.7845L32.6932 26.5285C32.8977 26.7348 33 26.9754 33 27.2505C33 27.5255 32.8977 27.7661 32.6932 27.9724L27.9886 32.7164C27.8011 32.9055 27.5668 33 27.2855 33C27.0043 33 26.7614 32.9055 26.5568 32.7164C26.3523 32.5101 26.25 32.2652 26.25 31.9816C26.25 31.698 26.3523 31.453 26.5568 31.2468L29.4972 28.2818L20.1136 28.2818C18.6989 28.2818 17.4929 27.779 16.4957 26.7735C15.4986 25.768 15 24.5519 15 23.1252L15 20.0313C15 19.7391 15.098 19.4942 15.294 19.2965C15.4901 19.0988 15.733 19 16.0227 19C16.3125 19 16.5554 19.0988 16.7514 19.2965C16.9474 19.4942 17.0455 19.7391 17.0455 20.0313L17.0455 23.1252C17.0455 23.9847 17.3438 24.7152 17.9403 25.3168C18.5369 25.9184 19.2614 26.2192 20.1136 26.2192L29.4972 26.2192Z" fill="#2098F3"/>
</g>
</svg>
