<svg width="28" height="28" viewBox="0 0 28 28" fill="none" xmlns="http://www.w3.org/2000/svg">
<mask id="mask0_2636_9195" style="mask-type:alpha" maskUnits="userSpaceOnUse" x="5" y="5" width="18" height="18">
<path d="M21 15.1668H15.1667V21.0002C15.1667 21.6418 14.6417 22.1668 14 22.1668C13.3583 22.1668 12.8333 21.6418 12.8333 21.0002V15.1668H6.99999C6.35833 15.1668 5.83333 14.6418 5.83333 14.0002C5.83333 13.3585 6.35833 12.8335 6.99999 12.8335H12.8333V7.00016C12.8333 6.3585 13.3583 5.8335 14 5.8335C14.6417 5.8335 15.1667 6.3585 15.1667 7.00016V12.8335H21C21.6417 12.8335 22.1667 13.3585 22.1667 14.0002C22.1667 14.6418 21.6417 15.1668 21 15.1668Z" fill="black"/>
</mask>
<g mask="url(#mask0_2636_9195)">
<rect width="28" height="28" fill="currentColor"/>
</g>
</svg>