<svg width="22" height="23" viewBox="0 0 22 23" fill="none" xmlns="http://www.w3.org/2000/svg">
<path fill-rule="evenodd" clip-rule="evenodd" d="M8.55987 6.04679C8.92222 6.04679 9.24392 6.30276 9.35851 6.68225L10.5934 10.772L14.298 12.1352C14.6418 12.2617 14.8736 12.6168 14.8736 13.0168C14.8736 13.4169 14.6418 13.772 14.298 13.8985L10.5934 15.2617L9.35851 19.3514C9.24392 19.7309 8.92222 19.9869 8.55987 19.9869C8.19752 19.9869 7.87582 19.7309 7.76123 19.3514L6.52636 15.2617L2.82172 13.8985C2.47796 13.772 2.24609 13.4169 2.24609 13.0168C2.24609 12.6168 2.47796 12.2617 2.82172 12.1352L6.52635 10.772L7.76123 6.68225C7.87582 6.30276 8.19752 6.04679 8.55987 6.04679ZM8.55987 9.91496L7.99052 11.8005C7.90673 12.0781 7.70947 12.2958 7.4581 12.3883L5.75005 13.0168L7.4581 13.6454C7.70947 13.7379 7.90673 13.9556 7.99052 14.2331L8.55987 16.1187L9.12922 14.2331C9.21301 13.9556 9.41027 13.7379 9.66164 13.6454L11.3697 13.0168L9.66164 12.3883C9.41027 12.2958 9.21301 12.0781 9.12922 11.8005L8.55987 9.91496Z" fill="#0283F5"/>
<path fill-rule="evenodd" clip-rule="evenodd" d="M15.2946 2.70117C15.512 2.70117 15.705 2.85475 15.7737 3.08245L16.4305 5.25747L18.4007 5.98247C18.607 6.05837 18.7461 6.27145 18.7461 6.51146C18.7461 6.75147 18.607 6.96456 18.4007 7.04045L16.4305 7.76546L15.7737 9.94048C15.705 10.1682 15.512 10.3218 15.2946 10.3218C15.0772 10.3218 14.8841 10.1682 14.8154 9.94048L14.1586 7.76546L12.1884 7.04045C11.9822 6.96456 11.843 6.75147 11.843 6.51146C11.843 6.27145 11.9822 6.05837 12.1884 5.98247L14.1586 5.25747L14.8154 3.08245C14.8841 2.85475 15.0772 2.70117 15.2946 2.70117Z" fill="#0283F5"/>
</svg>