<svg width="28" height="28" viewBox="0 0 28 28" fill="none" xmlns="http://www.w3.org/2000/svg">
<path d="M14 15.1668C14.6444 15.1668 15.1667 14.6445 15.1667 14.0002C15.1667 13.3558 14.6444 12.8335 14 12.8335C13.3557 12.8335 12.8334 13.3558 12.8334 14.0002C12.8334 14.6445 13.3557 15.1668 14 15.1668Z" fill="#989BA2"/>
<path d="M22.1667 15.1668C22.811 15.1668 23.3334 14.6445 23.3334 14.0002C23.3334 13.3558 22.811 12.8335 22.1667 12.8335C21.5224 12.8335 21 13.3558 21 14.0002C21 14.6445 21.5224 15.1668 22.1667 15.1668Z" fill="#989BA2"/>
<path d="M5.83335 15.1668C6.47769 15.1668 7.00002 14.6445 7.00002 14.0002C7.00002 13.3558 6.47769 12.8335 5.83335 12.8335C5.18902 12.8335 4.66669 13.3558 4.66669 14.0002C4.66669 14.6445 5.18902 15.1668 5.83335 15.1668Z" fill="#989BA2"/>
<path d="M14 15.1668C14.6444 15.1668 15.1667 14.6445 15.1667 14.0002C15.1667 13.3558 14.6444 12.8335 14 12.8335C13.3557 12.8335 12.8334 13.3558 12.8334 14.0002C12.8334 14.6445 13.3557 15.1668 14 15.1668Z" stroke="#989BA2" stroke-width="3" stroke-linecap="round" stroke-linejoin="round"/>
<path d="M22.1667 15.1668C22.811 15.1668 23.3334 14.6445 23.3334 14.0002C23.3334 13.3558 22.811 12.8335 22.1667 12.8335C21.5224 12.8335 21 13.3558 21 14.0002C21 14.6445 21.5224 15.1668 22.1667 15.1668Z" stroke="#989BA2" stroke-width="3" stroke-linecap="round" stroke-linejoin="round"/>
<path d="M5.83335 15.1668C6.47769 15.1668 7.00002 14.6445 7.00002 14.0002C7.00002 13.3558 6.47769 12.8335 5.83335 12.8335C5.18902 12.8335 4.66669 13.3558 4.66669 14.0002C4.66669 14.6445 5.18902 15.1668 5.83335 15.1668Z" stroke="#989BA2" stroke-width="3" stroke-linecap="round" stroke-linejoin="round"/>
</svg>
