<svg width="28" height="28" viewBox="0 0 28 28" fill="none" xmlns="http://www.w3.org/2000/svg">
<path d="M19.192 17.7351C18.9228 17.2698 19.0975 16.6831 19.5821 16.4247L22.1479 15.0565C22.6325 14.7981 23.2436 14.9658 23.5128 15.4311C23.782 15.8965 23.6073 16.4832 23.1226 16.7416L20.5569 18.1097C20.0722 18.3681 19.4611 18.2004 19.192 17.7351Z" fill="#989BA2"/>
<path d="M8.80804 17.7351C9.07721 17.2698 8.90252 16.6831 8.41787 16.4247L5.85211 15.0565C5.36746 14.7981 4.75636 14.9658 4.48719 15.4311C4.21802 15.8965 4.39271 16.4832 4.87736 16.7416L7.44312 18.1097C7.92777 18.3681 8.53887 18.2004 8.80804 17.7351Z" fill="#989BA2"/>
<rect width="2.24549" height="1.53524" rx="0.767621" transform="matrix(0.99053 -0.137294 0.148697 0.988883 12.147 4.30811)" fill="#989BA2"/>
<path fill-rule="evenodd" clip-rule="evenodd" d="M6.41698 6.52118C5.80426 6.62161 5.39235 7.1799 5.49696 7.76817C5.53252 7.96815 5.62319 8.14585 5.75147 8.28936L5.56423 8.32005C5.01776 8.40962 4.65038 8.90756 4.74367 9.43223C4.83697 9.9569 5.35561 10.3096 5.90208 10.22L21.434 7.67425C21.9805 7.58468 22.3479 7.08674 22.2546 6.56207C22.1613 6.0374 21.6426 5.68468 21.0962 5.77426L20.9089 5.80495C20.9803 5.6287 21.0045 5.43218 20.9689 5.2322C20.8643 4.64394 20.2828 4.24847 19.6701 4.3489L6.41698 6.52118Z" fill="#989BA2"/>
<path d="M4 11.6473C4 11.3224 4.46501 11.0591 5.03862 11.0591H21.3419C21.9155 11.0591 22.3805 11.3224 22.3805 11.6473C22.3805 11.9722 21.9155 12.2355 21.3419 12.2355H5.03863C4.46501 12.2355 4 11.9722 4 11.6473Z" fill="#989BA2"/>
<path d="M4 11.6473C4 11.3224 4.46501 11.0591 5.03862 11.0591H21.3419C21.9155 11.0591 22.3805 11.3224 22.3805 11.6473C22.3805 11.9722 21.9155 12.2355 21.3419 12.2355H5.03863C4.46501 12.2355 4 11.9722 4 11.6473Z" fill="#989BA2"/>
<path fill-rule="evenodd" clip-rule="evenodd" d="M5.03865 11.0591C4.46502 11.0591 4 11.3224 4 11.6473C4 11.9722 4.46502 12.2355 5.03865 12.2355H7.52559C7.52528 12.2296 7.52512 12.2237 7.52512 12.2177C7.52512 11.8929 7.99014 11.6295 8.56377 11.6295H22.3805C22.3639 11.3129 21.9054 11.0591 21.3423 11.0591H5.03865Z" fill="#989BA2"/>
<path d="M6.45068 12.2354H21.1551V22.1005C21.1551 23.1496 20.2903 24 19.2236 24H8.38219C7.31545 24 6.45068 23.1496 6.45068 22.1005V12.2354Z" fill="#989BA2"/>
</svg>
