<svg width="24" height="24" viewBox="0 0 24 24" fill="none" xmlns="http://www.w3.org/2000/svg">
<path fill-rule="evenodd" clip-rule="evenodd" d="M22.6726 12C23.1323 12 23.5772 11.9383 24 11.8228C23.664 11.7519 23.3157 11.7146 22.9582 11.7146H17.0228C16.0425 11.7146 15.1274 11.4337 14.3545 10.948C14.5231 9.95877 14.9895 9.0104 15.7532 8.24677L19.5471 4.45313C19.872 4.12829 20.1428 3.77003 20.36 3.38942C20.072 3.57695 19.7994 3.79699 19.5471 4.04956L15.3495 8.24677C14.6566 8.94 13.8111 9.38818 12.9206 9.59145C12.3409 8.77237 12 7.77206 12 6.69212V1.32711C12 0.867729 11.9385 0.422748 11.8228 0C11.752 0.336085 11.7145 0.68456 11.7145 1.04174V6.97748C11.7145 7.95785 11.4338 8.87268 10.9483 9.64572C9.95877 9.47674 9.01046 9.0104 8.24677 8.24671L4.45292 4.45313C4.128 4.12829 3.76984 3.85724 3.38954 3.64001C3.57723 3.92778 3.79692 4.20057 4.04984 4.45313L8.24677 8.65034C8.93969 9.34357 9.38831 10.189 9.59138 11.0791C8.77231 11.6591 7.77231 12 6.69231 12H1.32738C0.867691 12 0.422769 12.0617 0 12.1772C0.336 12.2481 0.684304 12.2854 1.04184 12.2854H6.97723C7.95815 12.2854 8.87261 12.5663 9.64554 13.0521C9.47692 14.0412 9.01046 14.9895 8.24677 15.7532L4.45292 19.5469C4.128 19.8718 3.85723 20.23 3.64 20.6106C3.928 20.423 4.20061 20.203 4.45292 19.9505L8.65047 15.7532C9.34339 15.06 10.1889 14.6118 11.0794 14.4085C11.6591 15.2276 12 16.2279 12 17.3079V22.6729C12 23.1323 12.0615 23.5772 12.1772 24C12.248 23.6639 12.2855 23.3154 12.2855 22.9583V17.0225C12.2855 16.0421 12.5662 15.1273 13.0523 14.3543C14.0412 14.5233 14.9895 14.9895 15.7532 15.7532L19.5471 19.5469C19.872 19.8718 20.2302 20.1427 20.6105 20.3601C20.4228 20.0722 20.2031 19.7994 19.9508 19.5469L15.7532 15.3497C15.0597 14.6564 14.6117 13.8109 14.4086 12.9209C15.2277 12.3408 16.2277 12 17.3077 12H22.6726Z" fill="#0283F5"/>
</svg>
