<svg width="28" height="28" viewBox="0 0 28 28" fill="none" xmlns="http://www.w3.org/2000/svg">
<path fill-rule="evenodd" clip-rule="evenodd" d="M14 10.3636C13.0356 10.3636 12.1107 10.7468 11.4287 11.4287C10.7468 12.1107 10.3636 13.0356 10.3636 14C10.3636 14.9644 10.7468 15.8893 11.4287 16.5713C12.1107 17.2532 13.0356 17.6364 14 17.6364C14.9644 17.6364 15.8893 17.2532 16.5713 16.5713C17.2532 15.8893 17.6364 14.9644 17.6364 14C17.6364 13.0356 17.2532 12.1107 16.5713 11.4287C15.8893 10.7468 14.9644 10.3636 14 10.3636ZM12.7144 12.7144C13.0553 12.3734 13.5178 12.1818 14 12.1818C14.4822 12.1818 14.9447 12.3734 15.2856 12.7144C15.6266 13.0553 15.8182 13.5178 15.8182 14C15.8182 14.4822 15.6266 14.9447 15.2856 15.2856C14.9447 15.6266 14.4822 15.8182 14 15.8182C13.5178 15.8182 13.0553 15.6266 12.7144 15.2856C12.3734 14.9447 12.1818 14.4822 12.1818 14C12.1818 13.5178 12.3734 13.0553 12.7144 12.7144Z" fill="#989BA2"/>
<path fill-rule="evenodd" clip-rule="evenodd" d="M13.0736 4C12.6607 4 12.2996 4.27833 12.1945 4.67768L11.7338 6.42786L10.2701 7.04487L9.14972 6.04807C8.78998 5.72803 8.2431 5.74398 7.90263 6.08445L6.08445 7.90263C5.75508 8.232 5.72795 8.75702 6.02161 9.11859L7.00354 10.3276L6.4014 11.809L4.70241 12.2056C4.29102 12.3017 4 12.6685 4 13.0909V14.9091C4 15.319 4.27435 15.6782 4.66983 15.7861L6.42591 16.2652L7.04458 17.7328L6.04878 18.8495C5.72804 19.2092 5.74369 19.7566 6.08445 20.0974L7.90263 21.9156C8.23244 22.2454 8.75834 22.2721 9.11986 21.9774L10.3284 20.9921L11.7734 21.5865L12.2095 23.3135C12.3114 23.7172 12.6746 24 13.0909 24H14.9091C15.3253 24 15.6883 23.7174 15.7904 23.3139L16.2276 21.5862L17.7209 20.9677C17.8712 21.0937 18.0436 21.2417 18.2151 21.3911C18.3855 21.5395 18.5439 21.6793 18.6598 21.7822C18.7177 21.8335 18.7648 21.8755 18.7974 21.9046L18.8468 21.9488C19.2063 22.2713 19.7559 22.2571 20.0974 21.9156L21.9156 20.0974C22.2501 19.7628 22.2721 19.2275 21.9661 18.8666L20.9758 17.6988L21.5886 16.2187L23.3195 15.769C23.7203 15.6648 24 15.3031 24 14.8891V13.0909C24 12.6752 23.718 12.3124 23.3151 12.2099L21.5948 11.7722L20.9836 10.2958L21.967 9.13232C22.2721 8.77136 22.2498 8.23683 21.9156 7.90263L20.0974 6.08445C19.7618 5.74889 19.2246 5.72789 18.8639 6.03622L17.709 7.02334L16.1805 6.3949L15.7292 4.67797C15.6242 4.27848 15.2631 4 14.85 4H13.0736ZM20.0378 19.4038L19.4158 20.0258L19.409 20.0198C19.0733 19.7275 18.6408 19.3576 18.3969 19.1832C18.1416 19.0007 17.8102 18.9627 17.5203 19.0828L15.1103 20.081C14.8451 20.1909 14.6473 20.4196 14.5769 20.6979L14.2014 22.1818H13.799L13.4242 20.6974C13.3536 20.4182 13.1549 20.1888 12.8886 20.0793L10.5195 19.1047C10.211 18.9778 9.85778 19.0301 9.59923 19.2408L8.60758 20.0492L7.97719 19.4188L8.78395 18.5141C9.0175 18.2522 9.07947 17.8793 8.94316 17.556L7.92952 15.1514C7.82107 14.8941 7.60042 14.701 7.33108 14.6275L5.81818 14.2148V13.8122L7.27304 13.4726C7.56045 13.4055 7.7974 13.203 7.90854 12.9296L8.89036 10.5141C9.01523 10.2069 8.96292 9.8561 8.75385 9.59869L7.94974 8.60863L8.58189 7.97648L9.49028 8.78465C9.75217 9.01765 10.1247 9.07932 10.4477 8.94316L12.8522 7.92952C13.1121 7.81996 13.3064 7.59598 13.3782 7.32323L13.7744 5.81818H14.149L14.5371 7.29476C14.6096 7.57037 14.8071 7.79606 15.0707 7.90443L17.5316 8.91625C17.8471 9.04597 18.2086 8.98815 18.4679 8.7665L19.4062 7.96455L20.0387 8.5971L19.2375 9.54495C19.018 9.8047 18.9618 10.1653 19.0919 10.4795L20.0891 12.8886C20.1988 13.1536 20.4271 13.3512 20.7049 13.4219L22.1818 13.7977V14.186L20.6932 14.5729C20.4173 14.6446 20.1909 14.8416 20.0819 15.105L19.0837 17.5159C18.9534 17.8306 19.01 18.1918 19.2303 18.4516L20.0378 19.4038Z" fill="#989BA2"/>
</svg>
